<svg width="122.88" height="122.87" xmlns="http://www.w3.org/2000/svg" xml:space="preserve" version="1.1">
 <defs>
  <linearGradient y2="0" x2="1" y1="0" x1="0" id="svg_3">
   <stop offset="0" stop-opacity="0.99609" stop-color="#ff00fc"/>
   <stop offset="1" stop-opacity="0.99609" stop-color="#00fffc"/>
  </linearGradient>
 </defs>
 <g>
  <title>Layer 1</title>
  <g id="svg_1">
   <path id="svg_2" fill="url(#svg_3)" d="m120.56,55.96l-53.65,-53.64c-3.09,-3.09 -8.1,-3.09 -11.19,0l-11.14,11.14l14.13,14.13c3.29,-1.11 7.05,-0.37 9.67,2.25c2.63,2.63 3.37,6.43 2.23,9.73l13.62,13.62c3.3,-1.14 7.1,-0.4 9.73,2.23c3.68,3.68 3.68,9.64 0,13.31c-3.68,3.68 -9.64,3.68 -13.32,0c-2.77,-2.77 -3.45,-6.83 -2.05,-10.24l-12.7,-12.7l0,33.43c0.9,0.44 1.74,1.04 2.49,1.78c3.68,3.68 3.68,9.64 0,13.32c-3.68,3.68 -9.64,3.68 -13.31,0c-3.68,-3.68 -3.68,-9.64 0,-13.32c0.91,-0.91 1.96,-1.59 3.08,-2.05l0,-33.74c-1.12,-0.46 -2.17,-1.14 -3.08,-2.05c-2.79,-2.78 -3.46,-6.87 -2.03,-10.29l-13.94,-13.94l-36.78,36.79c-3.09,3.09 -3.09,8.1 0,11.19l53.65,53.65c3.09,3.09 8.1,3.09 11.19,0l53.4,-53.39c3.09,-3.1 3.09,-8.11 0,-11.21l0,0l0,0zm0,0l0,0l0,0l0,0z" class="st0"/>
  </g>
 </g>
</svg>