<svg width="453" height="511.5" xmlns="http://www.w3.org/2000/svg" clip-rule="evenodd" fill-rule="evenodd" image-rendering="optimizeQuality" text-rendering="geometricPrecision" shape-rendering="geometricPrecision">
 <defs>
  <linearGradient y2="0" x2="1" y1="0" x1="0" id="svg_2">
   <stop offset="0" stop-opacity="0.99609" stop-color="#ff00fc"/>
   <stop offset="1" stop-opacity="0.99609" stop-color="#00fffc"/>
  </linearGradient>
 </defs>
 <g>
  <title>Layer 1</title>
  <path fill="url(#svg_2)" id="svg_1" d="m358.26,162.3l-199.97,0.01l3.52,39.36l191.52,0c4.57,0 8.28,3.71 8.28,8.29l-15.03,168.43a8.268,8.268 0 0 1 -6.05,7.26l-112.05,31.07c-1.53,0.42 -3.07,0.38 -4.49,-0.02l-111.84,-31.04a8.28,8.28 0 0 1 -6.08,-7.71l-7.62,-85.37c-0.39,-4.56 2.99,-8.57 7.54,-8.97l0.71,-0.03l0,-0.03l54.85,0c4.59,0 8.32,3.72 8.32,8.31l3.31,37.11l53.09,14.3l53.28,-14.37l5,-56.04l-180.28,0c-4.41,0 -8.01,-3.44 -8.27,-7.79l-14.69,-164.97c-0.4,-4.56 2.98,-8.58 7.53,-8.97l0.72,-0.03l0,-0.03l273.63,0c4.59,0 8.32,3.72 8.32,8.31c0,0.52 -0.05,1.02 -0.14,1.51l-4.82,53.83c-0.37,4.33 -4.01,7.59 -8.29,7.58zm-340.89,-145.7l38.39,430.66l170.49,47.34l170.94,-47.4l38.47,-430.61l-418.29,0.01zm22.41,437.83l-39.64,-444.6a8.32,8.32 0 0 1 8.18,-9.83l436.4,0.02l0.71,0.03c4.56,0.4 7.93,4.41 7.54,8.97l-39.75,444.91c-0.12,3.53 -2.49,6.73 -6.08,7.72l-178.62,49.52a8.21,8.21 0 0 1 -4.48,0.02l-178.22,-49.48c-3.24,-0.91 -5.74,-3.74 -6.04,-7.28zm109.46,-308.75l201.49,0l3.4,-37.98l-255.52,0l13.23,148.59l181.76,0l0.71,0.03c4.56,0.39 7.93,4.41 7.54,8.96l-6.26,70.23a8.318,8.318 0 0 1 -6.17,7.93l-60.77,16.39a8.31,8.31 0 0 1 -4.51,0.07l-60.84,-16.39c-3.26,-0.9 -5.8,-3.75 -6.11,-7.31l-3.21,-36.02l-38.22,0l6.33,71.03l104.18,28.91l104.32,-28.91l13.68,-152.97l-190.04,0c-4.25,0 -7.88,-3.26 -8.25,-7.57l-4.92,-55.16c-0.09,-0.49 -0.14,-1 -0.14,-1.51c0,-4.59 3.73,-8.32 8.32,-8.32z" fill-rule="nonzero"/>
 </g>
</svg>