<svg width="50" height="50" xmlns="http://www.w3.org/2000/svg">
 <defs>
  <linearGradient y2="0" x2="1" y1="0" x1="0" id="svg_2">
   <stop offset="0" stop-opacity="0.99609" stop-color="#ff00fc"/>
   <stop offset="1" stop-opacity="0.99609" stop-color="#00fffc"/>
  </linearGradient>
 </defs>
 <g>
  <title>Layer 1</title>
  <path fill="url(#svg_2)" id="svg_1" d="m9,4c-2.74952,0 -5,2.25048 -5,5l0,32c0,2.74952 2.25048,5 5,5l32,0c2.74952,0 5,-2.25048 5,-5l0,-32c0,-2.74952 -2.25048,-5 -5,-5l-32,0zm0,2l32,0c1.66848,0 3,1.33152 3,3l0,32c0,1.66848 -1.33152,3 -3,3l-32,0c-1.66848,0 -3,-1.33152 -3,-3l0,-32c0,-1.66848 1.33152,-3 3,-3zm5,5.01172c-1.09522,0 -2.08078,0.32736 -2.81055,0.94141c-0.72976,0.61404 -1.17773,1.53138 -1.17773,2.51367c0,1.86718 1.61957,3.32281 3.67969,3.46679a0.9881,0.9881 0 0 0 0.0039,0.00196a0.9881,0.9881 0 0 0 0.30469,0.05273c2.27301,0 3.98828,-1.5922 3.98828,-3.52148a0.9881,0.9881 0 0 0 -0.00195,-0.05274c-0.10175,-1.90023 -1.79589,-3.40234 -3.98633,-3.40234zm0,1.97656c1.39223,0 1.94197,0.62176 2.00195,1.50391c-0.01215,0.85624 -0.54186,1.51953 -2.00195,1.51953c-1.38541,0 -2.01172,-0.7095 -2.01172,-1.54492c0,-0.41772 0.15242,-0.7325 0.47266,-1.00196c0.32023,-0.26945 0.83428,-0.47656 1.53906,-0.47656zm-3,6.01172a1.0001,1.0001 0 0 0 -1,1l0,19a1.0001,1.0001 0 0 0 1,1l6,0a1.0001,1.0001 0 0 0 1,-1l0,-5.86523l0,-13.13477a1.0001,1.0001 0 0 0 -1,-1l-6,0zm9,0a1.0001,1.0001 0 0 0 -1,1l0,19a1.0001,1.0001 0 0 0 1,1l6,0a1.0001,1.0001 0 0 0 1,-1l0,-10c0,-0.82967 0.22639,-1.65497 0.625,-2.19531c0.39861,-0.54035 0.90147,-0.86463 1.85742,-0.84766c0.98575,0.01695 1.50758,0.35464 1.90235,0.88477c0.39476,0.53012 0.61523,1.32487 0.61523,2.1582l0,10a1.0001,1.0001 0 0 0 1,1l6,0a1.0001,1.0001 0 0 0 1,-1l0,-10.73828c0,-2.96154 -0.87721,-5.30739 -2.38086,-6.89453c-1.50365,-1.58715 -3.59497,-2.36719 -5.80664,-2.36719c-2.10202,0 -3.70165,0.70489 -4.8125,1.42383l0,-0.42383a1.0001,1.0001 0 0 0 -1,-1l-6,0zm-8,2l4,0l0,12.13477l0,4.86523l-4,0l0,-17zm9,0l4,0l0,1.56055a1.0001,1.0001 0 0 0 1.79883,0.60156c0,0 1.57036,-2.16211 5.01367,-2.16211c1.75333,0 3.25687,0.58258 4.35547,1.74219c1.0986,1.1596 1.83203,2.94607 1.83203,5.51953l0,9.73828l-4,0l0,-9c0,-1.16667 -0.27953,-2.37289 -1.00977,-3.35352c-0.73023,-0.98062 -1.9584,-1.6634 -3.47265,-1.68945c-1.52205,-0.02703 -2.77006,0.66996 -3.50195,1.66211c-0.7319,0.99215 -1.01563,2.21053 -1.01563,3.38086l0,9l-4,0l0,-17z"/>
 </g>
</svg>