<svg width="109" height="122.88" xmlns="http://www.w3.org/2000/svg" data-name="Layer 1">
 <defs>
  <linearGradient y2="0" x2="1" y1="0" x1="0" id="svg_2">
   <stop offset="0.00391" stop-opacity="0.99609" stop-color="#ff00fc"/>
   <stop offset="1" stop-opacity="0.99609" stop-color="#00fffc"/>
  </linearGradient>
 </defs>
 <title>node-js-black</title>
 <g>
  <title>Layer 1</title>
  <path fill="url(#svg_2)" id="svg_1" fill-rule="evenodd" d="m68.43,87.08c-19.7,0 -23.83,-9 -23.83,-16.63a1.3,1.3 0 0 1 1.3,-1.3l5.82,0a1.3,1.3 0 0 1 1.28,1.1c0.88,5.93 3.49,8.92 15.41,8.92c9.49,0 13.52,-2.17 13.52,-7.17c0,-2.9 -1.15,-5 -15.89,-6.49c-12.33,-1.22 -20,-3.93 -20,-13.8c0,-9.08 7.66,-14.49 20.5,-14.49c14.42,0 21.56,5 22.46,15.76a1.31,1.31 0 0 1 -0.35,1a1.35,1.35 0 0 1 -1,0.42l-5.75,0a1.29,1.29 0 0 1 -1.26,-1c-1.41,-6.23 -4.81,-8.23 -14.07,-8.23c-10.36,-0.02 -11.57,3.59 -11.57,6.29c0,3.28 1.42,4.24 15.4,6.09s20.42,4.45 20.42,14.16s-8.18,15.43 -22.45,15.43l0.06,-0.06zm-13.91,35.8a9.45,9.45 0 0 1 -4.72,-1.26l-15,-8.9c-2.25,-1.26 -1.15,-1.7 -0.41,-2a30.38,30.38 0 0 0 6.8,-3.1a1.15,1.15 0 0 1 1.12,0.08l11.55,6.85a1.51,1.51 0 0 0 1.4,0l45,-26a1.42,1.42 0 0 0 0.69,-1.22l0,-51.9a1.44,1.44 0 0 0 -0.7,-1.24l-45,-26a1.38,1.38 0 0 0 -1.39,0l-45,26a1.42,1.42 0 0 0 -0.71,1.23l0,52a1.39,1.39 0 0 0 0.7,1.21l12.33,7.12c6.67,3.31 10.82,-0.64 10.82,-4.6l0,-51.29a1.29,1.29 0 0 1 1.31,-1.3l5.69,0a1.29,1.29 0 0 1 1.3,1.3l0,51.31c0,8.93 -4.87,14 -13.33,14c-2.6,0 -4.66,0 -10.38,-2.82l-11.87,-6.76a9.51,9.51 0 0 1 -4.72,-8.21l0,-52a9.47,9.47 0 0 1 4.72,-8.21l45.07,-26a9.89,9.89 0 0 1 9.47,0l45,26a9.49,9.49 0 0 1 4.74,8.26l0,52a9.54,9.54 0 0 1 -4.72,8.21l-45,26a9.5,9.5 0 0 1 -4.74,1.26l0,0l-0.02,-0.02zm0,0z" class="cls-1"/>
 </g>
</svg>